<?xml version="1.0" encoding="utf-8"?>
<svg xmlns="http://www.w3.org/2000/svg" xmlns:xlink="http://www.w3.org/1999/xlink" style="margin: auto; background: none; display: block; shape-rendering: auto;" width="50px" height="50px" viewBox="0 0 100 100" preserveAspectRatio="xMidYMid">
<g transform="rotate(0 50 50)">
  <rect x="45" y="1.5" rx="5" ry="6.72" width="10" height="21" fill="#ffffff">
    <animate attributeName="opacity" values="1;0" keyTimes="0;1" dur="0.6711409395973155s" begin="-0.6040268456375839s" repeatCount="indefinite"></animate>
  </rect>
</g><g transform="rotate(36 50 50)">
  <rect x="45" y="1.5" rx="5" ry="6.72" width="10" height="21" fill="#ffffff">
    <animate attributeName="opacity" values="1;0" keyTimes="0;1" dur="0.6711409395973155s" begin="-0.5369127516778524s" repeatCount="indefinite"></animate>
  </rect>
</g><g transform="rotate(72 50 50)">
  <rect x="45" y="1.5" rx="5" ry="6.72" width="10" height="21" fill="#ffffff">
    <animate attributeName="opacity" values="1;0" keyTimes="0;1" dur="0.6711409395973155s" begin="-0.4697986577181208s" repeatCount="indefinite"></animate>
  </rect>
</g><g transform="rotate(108 50 50)">
  <rect x="45" y="1.5" rx="5" ry="6.72" width="10" height="21" fill="#ffffff">
    <animate attributeName="opacity" values="1;0" keyTimes="0;1" dur="0.6711409395973155s" begin="-0.40268456375838924s" repeatCount="indefinite"></animate>
  </rect>
</g><g transform="rotate(144 50 50)">
  <rect x="45" y="1.5" rx="5" ry="6.72" width="10" height="21" fill="#ffffff">
    <animate attributeName="opacity" values="1;0" keyTimes="0;1" dur="0.6711409395973155s" begin="-0.33557046979865773s" repeatCount="indefinite"></animate>
  </rect>
</g><g transform="rotate(180 50 50)">
  <rect x="45" y="1.5" rx="5" ry="6.72" width="10" height="21" fill="#ffffff">
    <animate attributeName="opacity" values="1;0" keyTimes="0;1" dur="0.6711409395973155s" begin="-0.2684563758389262s" repeatCount="indefinite"></animate>
  </rect>
</g><g transform="rotate(216 50 50)">
  <rect x="45" y="1.5" rx="5" ry="6.72" width="10" height="21" fill="#ffffff">
    <animate attributeName="opacity" values="1;0" keyTimes="0;1" dur="0.6711409395973155s" begin="-0.20134228187919462s" repeatCount="indefinite"></animate>
  </rect>
</g><g transform="rotate(252 50 50)">
  <rect x="45" y="1.5" rx="5" ry="6.72" width="10" height="21" fill="#ffffff">
    <animate attributeName="opacity" values="1;0" keyTimes="0;1" dur="0.6711409395973155s" begin="-0.1342281879194631s" repeatCount="indefinite"></animate>
  </rect>
</g><g transform="rotate(288 50 50)">
  <rect x="45" y="1.5" rx="5" ry="6.72" width="10" height="21" fill="#ffffff">
    <animate attributeName="opacity" values="1;0" keyTimes="0;1" dur="0.6711409395973155s" begin="-0.06711409395973154s" repeatCount="indefinite"></animate>
  </rect>
</g><g transform="rotate(324 50 50)">
  <rect x="45" y="1.5" rx="5" ry="6.72" width="10" height="21" fill="#ffffff">
    <animate attributeName="opacity" values="1;0" keyTimes="0;1" dur="0.6711409395973155s" begin="0s" repeatCount="indefinite"></animate>
  </rect>
</g>
<!-- [ldio] generated by https://loading.io/ --></svg>